<svg xmlns="http://www.w3.org/2000/svg" version="1.1" viewBox="-5.0 -10.0 110.0 135.0">
 <path d="m96.352 15.141h-41.832c-1.7383 0-3.1602 1.4219-3.1602 3.1602v2.3203h-34.648c-1.7695 0-3.2109 1.4414-3.2109 3.2109v1.3984h-10.34c-1.4688 0-2.6719 1.1992-2.6719 2.6719v25.422c0 1.4688 1.1992 2.6719 2.6719 2.6719l10.34-0.007813v2.9297c0 1.7695 1.4414 3.2109 3.2109 3.2109h34.66v2.3203c0 1.7383 1.4219 3.1602 3.1602 3.1602h41.828c1.7383 0 3.1602-1.4219 3.1602-3.1602v-46.148c-0.007812-1.75-1.418-3.1602-3.168-3.1602zm-93.191 38.359c-0.10156 0-0.19141-0.089844-0.19141-0.19141v-25.418c0-0.10156 0.078125-0.19141 0.19141-0.19141h10.34v25.801zm12.82 5.4102v-35.09c0-0.39844 0.32812-0.73047 0.73047-0.73047h53.57c0.39844 0 0.73047 0.32812 0.73047 0.73047v35.09c0 0.39844-0.32812 0.73047-0.73047 0.73047h-53.57c-0.40234 0-0.73047-0.33203-0.73047-0.73047zm81.051 5.5312c0 0.37891-0.30078 0.67969-0.67969 0.67969h-41.832c-0.37109 0-0.67969-0.30078-0.67969-0.67969v-2.3203h16.441c1.7695 0 3.2109-1.4414 3.2109-3.2109l-0.003907-35.09c0-1.7695-1.4414-3.2109-3.2109-3.2109h-16.438v-2.3086c0-0.37109 0.30078-0.67969 0.67969-0.67969h41.828c0.37109 0 0.67969 0.30078 0.67969 0.67969z"/>
 <path d="m67.48 49.672-10.699-10.5c-0.42188-0.41016-1-0.64062-1.5898-0.60938-0.58984 0.019531-1.1484 0.28906-1.5391 0.73828l-5.0898 5.8711-11.32-10c-1.0586-0.94141-2.6797-0.89062-3.6602 0.12109l-14.422 14.637c-0.48047 0.48047-0.46875 1.2617 0 1.7383 0.23828 0.23828 0.55859 0.37109 0.87891 0.37109 0.070313 0 0.14844-0.011718 0.21875-0.019531 1-0.070312 10.02-0.12109 46.672 0 0.67969 0 1.2383-0.55078 1.2383-1.2383 0.011719-0.48047-0.27734-0.91016-0.6875-1.1094zm-12.191-8.4805 8.5 8.3398c-4.6211-0.019531-10.141-0.03125-15.711-0.039062zm-29.57 8.2891c-1.0508 0-1.9219 0.011719-2.6484 0.011719l12.27-12.469c0.070312-0.070313 0.17188-0.070313 0.25 0l11.34 10.02-1.8594 2.1406c-0.078124 0.089844-0.14062 0.19922-0.19141 0.30859-2 0-3.9805-0.011719-5.9102-0.011719-5.6602-0.011719-10.117-0.011719-13.25 0z"/>
 <path d="m48.52 38.391c2.2188 0 4.0312-1.8086 4.0312-4.0312 0-2.2188-1.8086-4.0312-4.0312-4.0312-2.2188 0-4.0312 1.8086-4.0312 4.0312 0 2.2188 1.8008 4.0312 4.0312 4.0312zm0-5.582c0.85156 0 1.5508 0.69922 1.5508 1.5508 0 0.85938-0.69922 1.5508-1.5508 1.5508-0.85156 0-1.5508-0.69922-1.5508-1.5508 0-0.85938 0.69141-1.5508 1.5508-1.5508z"/>
 <path d="m22.559 73.238c-2.1992 0-3.9805 1.7891-3.9805 3.9805s1.7891 3.9805 3.9805 3.9805c2.1992 0 3.9805-1.7891 3.9805-3.9805 0-2.1875-1.7773-3.9805-3.9805-3.9805zm0 5.4805c-0.82812 0-1.5-0.67188-1.5-1.5s0.67188-1.5 1.5-1.5 1.5 0.67188 1.5 1.5c0 0.83203-0.66797 1.5-1.5 1.5z"/>
 <path d="m39.02 71.41c-3.2109 0-5.8086 2.6094-5.8086 5.8086 0 3.2109 2.6094 5.8086 5.8086 5.8086 3.2109 0 5.8086-2.6094 5.8086-5.8086 0-3.207-2.6094-5.8086-5.8086-5.8086zm0 9.1406c-1.8398 0-3.3281-1.4883-3.3281-3.3281s1.4883-3.3281 3.3281-3.3281c1.8398 0 3.3281 1.4883 3.3281 3.3281 0.003906 1.8359-1.4883 3.3281-3.3281 3.3281z"/>
 <path d="m58.219 69.578c-4.2109 0-7.6406 3.4297-7.6406 7.6406s3.4297 7.6406 7.6406 7.6406 7.6406-3.4297 7.6406-7.6406c0.011719-4.207-3.418-7.6406-7.6406-7.6406zm0 12.801c-2.8516 0-5.1602-2.3203-5.1602-5.1602s2.3203-5.1602 5.1602-5.1602 5.1602 2.3086 5.1602 5.1602-2.3086 5.1602-5.1602 5.1602z"/>
<text x="0.0" y="117.5" font-size="5.0" font-weight="bold" font-family="Arbeit Regular, Helvetica, Arial-Unicode, Arial, Sans-serif" fill="#000000">Created by zum rotul</text><text x="0.0" y="122.5" font-size="5.0" font-weight="bold" font-family="Arbeit Regular, Helvetica, Arial-Unicode, Arial, Sans-serif" fill="#000000">from Noun Project</text></svg>